# This file uses centimeters as units for non-parametric coordinates.

mtllib mask.mtl
g default
v 1.221738 1.266062 0.768212
v 0.040803 1.065666 1.273458
v 1.284729 2.444799 1.278116
v 0.040803 2.444799 1.783362
v 1.284729 2.444799 1.190388
v 0.040803 2.444799 1.695635
v 1.221738 1.266062 0.680485
v 0.040803 1.065666 1.185731
v 0.904151 2.444799 1.538151
v 0.904151 2.444799 1.450424
v 0.904151 1.203839 0.940520
v 0.904151 1.203839 1.028247
v 0.250120 2.444799 1.759686
v 0.250120 2.444799 1.671959
v 0.250120 1.107358 1.162055
v 0.250120 1.107358 1.249782
v 0.612742 1.157793 1.164629
v 0.612742 2.444799 1.674533
v 0.612742 2.444799 1.586805
v 0.612742 1.157793 1.076901
v 0.040803 1.888351 1.783362
v 0.250120 1.905163 1.759686
v 0.612742 1.928011 1.674533
v 0.904151 1.947097 1.538151
v 1.284729 1.964555 1.270255
v 1.284729 1.964555 1.182528
v 0.904151 1.947097 1.450424
v 0.612742 1.928011 1.586805
v 0.250120 1.905163 1.671959
v 0.040803 1.888351 1.695635
v 0.040803 2.169842 1.783362
v 0.250120 2.178150 1.759686
v 0.612742 2.189440 1.674533
v 0.904151 2.198871 1.538151
v 1.284729 2.207497 1.278116
v 1.284729 2.207497 1.190388
v 0.904151 2.198871 1.450424
v 0.612742 2.189440 1.586805
v 0.250120 2.178150 1.671959
v 0.040803 2.169842 1.695635
v 0.040803 1.475062 1.643358
v 0.250120 1.502121 1.619682
v 0.612742 1.538896 1.534528
v 0.904151 1.569616 1.398147
v 1.265885 1.597715 1.117121
v 1.265885 1.597715 1.029394
v 0.904151 1.569616 1.310419
v 0.612742 1.538896 1.446801
v 0.250120 1.502121 1.531954
v 0.040803 1.475062 1.555630
v -1.138026 1.266062 0.768212
v 0.042690 1.065666 1.273458
v -1.201006 2.444799 1.278116
v 0.042690 2.444799 1.783362
v -1.201006 2.444799 1.190388
v 0.042690 2.444799 1.695635
v -1.138026 1.266062 0.680485
v 0.042690 1.065666 1.185731
v -0.820498 2.444799 1.538151
v -0.820498 2.444799 1.450424
v -0.820498 1.203839 0.940520
v -0.820498 1.203839 1.028247
v -0.166588 2.444799 1.759686
v -0.166588 2.444799 1.671959
v -0.166588 1.107358 1.162055
v -0.166588 1.107358 1.249782
v -0.529143 1.157793 1.164629
v -0.529143 2.444799 1.674533
v -0.529143 2.444799 1.586805
v -0.529143 1.157793 1.076901
v 0.042690 1.888351 1.783362
v -0.166588 1.905163 1.759686
v -0.529143 1.928011 1.674533
v -0.820498 1.947097 1.538151
v -1.201006 1.964555 1.270255
v -1.201006 1.964555 1.182528
v -0.820498 1.947097 1.450424
v -0.529143 1.928011 1.586805
v -0.166588 1.905163 1.671959
v 0.042690 1.888351 1.695635
v 0.042690 2.169842 1.783362
v -0.166588 2.178150 1.759686
v -0.529143 2.189440 1.674533
v -0.820498 2.198871 1.538151
v -1.201006 2.207497 1.278116
v -1.201006 2.207497 1.190388
v -0.820498 2.198871 1.450424
v -0.529143 2.189440 1.586805
v -0.166588 2.178150 1.671959
v 0.042690 2.169842 1.695635
v 0.042690 1.475062 1.643358
v -0.166588 1.502121 1.619682
v -0.529143 1.538896 1.534528
v -0.820498 1.569616 1.398147
v -1.182165 1.597715 1.117121
v -1.182165 1.597715 1.029394
v -0.820498 1.569616 1.310419
v -0.529143 1.538896 1.446801
v -0.166588 1.502121 1.531954
v 0.042690 1.475062 1.555630
vt 0.375000 0.000000
vt 0.625000 0.000000
vt 0.375000 0.250000
vt 0.625000 0.250000
vt 0.375000 0.500000
vt 0.625000 0.500000
vt 0.375000 0.750000
vt 0.625000 0.750000
vt 0.375000 1.000000
vt 0.625000 1.000000
vt 0.875000 0.000000
vt 0.875000 0.250000
vt 0.125000 0.000000
vt 0.125000 0.250000
vt 0.432274 0.250000
vt 0.432274 0.500000
vt 0.432274 0.750000
vt 0.432274 0.000000
vt 0.432274 1.000000
vt 0.569846 0.250000
vt 0.569846 0.500000
vt 0.569846 0.750000
vt 0.569846 0.000000
vt 0.569846 1.000000
vt 0.494888 0.000000
vt 0.494888 1.000000
vt 0.494888 0.250000
vt 0.494888 0.500000
vt 0.494888 0.750000
vt 0.625000 0.130942
vt 0.569846 0.130942
vt 0.494888 0.130942
vt 0.432274 0.130942
vt 0.375000 0.130942
vt 0.125000 0.130942
vt 0.375000 0.619058
vt 0.432274 0.619058
vt 0.494888 0.619058
vt 0.569846 0.619058
vt 0.625000 0.619058
vt 0.875000 0.130942
vt 0.625000 0.191170
vt 0.569846 0.191170
vt 0.494888 0.191170
vt 0.432274 0.191170
vt 0.375000 0.191170
vt 0.125000 0.191170
vt 0.375000 0.558830
vt 0.432274 0.558830
vt 0.494888 0.558830
vt 0.569846 0.558830
vt 0.625000 0.558830
vt 0.875000 0.191170
vt 0.625000 0.058372
vt 0.569846 0.058372
vt 0.494888 0.058372
vt 0.432274 0.058372
vt 0.375000 0.058372
vt 0.125000 0.058372
vt 0.375000 0.691628
vt 0.432274 0.691628
vt 0.494888 0.691628
vt 0.569846 0.691628
vt 0.625000 0.691628
vt 0.875000 0.058372
vt 0.375000 0.000000
vt 0.432274 0.000000
vt 0.432274 0.058372
vt 0.375000 0.058372
vt 0.375000 0.250000
vt 0.432274 0.250000
vt 0.432274 0.500000
vt 0.375000 0.500000
vt 0.375000 0.691628
vt 0.432274 0.691628
vt 0.432274 0.750000
vt 0.375000 0.750000
vt 0.432274 1.000000
vt 0.375000 1.000000
vt 0.625000 0.000000
vt 0.875000 0.000000
vt 0.875000 0.058372
vt 0.625000 0.058372
vt 0.125000 0.000000
vt 0.125000 0.058372
vt 0.494888 0.250000
vt 0.494888 0.500000
vt 0.494888 0.691628
vt 0.494888 0.750000
vt 0.494888 1.000000
vt 0.494888 0.000000
vt 0.494888 0.058372
vt 0.569846 0.250000
vt 0.625000 0.250000
vt 0.625000 0.500000
vt 0.569846 0.500000
vt 0.569846 0.750000
vt 0.569846 0.691628
vt 0.625000 0.691628
vt 0.625000 0.750000
vt 0.569846 1.000000
vt 0.625000 1.000000
vt 0.569846 0.058372
vt 0.569846 0.000000
vt 0.569846 0.191170
vt 0.569846 0.130942
vt 0.625000 0.130942
vt 0.625000 0.191170
vt 0.494888 0.191170
vt 0.494888 0.130942
vt 0.432274 0.191170
vt 0.432274 0.130942
vt 0.375000 0.130942
vt 0.375000 0.191170
vt 0.125000 0.130942
vt 0.125000 0.191170
vt 0.375000 0.558830
vt 0.432274 0.558830
vt 0.432274 0.619058
vt 0.375000 0.619058
vt 0.494888 0.619058
vt 0.494888 0.558830
vt 0.569846 0.619058
vt 0.569846 0.558830
vt 0.625000 0.619058
vt 0.625000 0.558830
vt 0.875000 0.130942
vt 0.875000 0.191170
vt 0.125000 0.250000
vt 0.875000 0.250000
vn 0.536873 -0.621737 0.570272
vn 0.561940 -0.505981 0.654375
vn 0.496964 -0.488321 0.717335
vn 0.485196 -0.633337 0.602884
vn 0.000000 1.000000 0.000000
vn 0.000000 1.000000 0.000000
vn 0.000000 1.000000 0.000000
vn 0.000000 1.000000 0.000000
vn -0.561940 0.505981 -0.654375
vn -0.536872 0.621737 -0.570272
vn -0.485196 0.633337 -0.602884
vn -0.496964 0.488321 -0.717335
vn 0.192268 -0.981342 -0.000001
vn 0.192268 -0.981342 -0.000001
vn 0.167992 -0.985788 -0.000000
vn 0.180867 -0.983508 -0.000001
vn -1.000000 0.000000 0.000000
vn -1.000000 -0.000000 0.000000
vn -1.000000 -0.000000 0.000000
vn -1.000000 0.000000 0.000000
vn 0.991257 -0.131948 -0.000000
vn 0.994615 -0.103644 -0.000000
vn 0.997373 -0.072441 -0.000000
vn 0.991257 -0.131948 -0.000000
vn 0.000000 1.000000 0.000000
vn 0.000000 1.000000 0.000000
vn -0.318080 0.660474 -0.680146
vn -0.321549 0.517025 -0.793279
vn 0.143946 -0.989585 0.000000
vn 0.147767 -0.989022 0.000000
vn 0.321549 -0.517025 0.793279
vn 0.318080 -0.660474 0.680146
vn 0.000000 1.000000 0.000000
vn 0.000000 1.000000 0.000000
vn 0.000000 1.000000 0.000000
vn 0.000000 1.000000 0.000000
vn -0.225253 0.667651 -0.709580
vn -0.190858 0.664597 -0.722415
vn -0.172753 0.530449 -0.829928
vn -0.219367 0.522860 -0.823709
vn 0.162129 -0.986770 0.000000
vn 0.195345 -0.980735 0.000000
vn 0.195345 -0.980735 0.000000
vn 0.156311 -0.987708 0.000000
vn 0.219367 -0.522860 0.823709
vn 0.172753 -0.530449 0.829928
vn 0.190858 -0.664597 0.722415
vn 0.225253 -0.667651 0.709580
vn 0.185950 0.000000 0.982559
vn 0.112394 0.000000 0.993664
vn 0.131134 -0.204265 0.970093
vn 0.198926 -0.199256 0.959544
vn 0.318860 0.000000 0.947802
vn 0.324127 -0.196488 0.925383
vn 0.508844 -0.003902 0.860850
vn 0.514863 -0.194219 0.834982
vn 0.580999 -0.204419 0.787815
vn 0.567205 -0.006580 0.823551
vn 0.999428 -0.033814 0.000000
vn 1.000000 0.000000 0.000000
vn 1.000000 0.000000 0.000000
vn 0.999636 -0.026984 0.000000
vn -0.567205 0.006580 -0.823550
vn -0.580999 0.204420 -0.787816
vn -0.514863 0.194219 -0.834982
vn -0.508844 0.003902 -0.860850
vn -0.324127 0.196488 -0.925383
vn -0.318860 0.000000 -0.947802
vn -0.198926 0.199256 -0.959544
vn -0.185950 0.000000 -0.982559
vn -0.131133 0.204266 -0.970093
vn -0.112393 0.000000 -0.993664
vn -1.000000 -0.000000 0.000000
vn -1.000000 0.000000 0.000000
vn -1.000000 0.000000 0.000000
vn -1.000000 -0.000000 0.000000
vn 0.185936 0.000000 0.982562
vn 0.112393 0.000000 0.993664
vn 0.318838 0.000000 0.947809
vn 0.506853 0.000000 0.862033
vn 0.564151 0.000000 0.825671
vn 1.000000 0.000000 0.000000
vn 1.000000 0.000000 0.000000
vn -0.564152 0.000000 -0.825671
vn -0.506853 0.000000 -0.862033
vn -0.318839 0.000000 -0.947809
vn -0.185935 0.000000 -0.982562
vn -0.112393 0.000000 -0.993664
vn -1.000000 0.000000 0.000000
vn -1.000000 0.000000 0.000000
vn -0.536943 -0.621704 0.570242
vn -0.485266 -0.633309 0.602857
vn -0.497033 -0.488298 0.717303
vn -0.562010 -0.505956 0.654334
vn 0.000000 1.000000 0.000000
vn 0.000000 1.000000 0.000000
vn 0.000000 1.000000 0.000000
vn 0.000000 1.000000 0.000000
vn 0.562010 0.505956 -0.654334
vn 0.497033 0.488298 -0.717303
vn 0.485266 0.633309 -0.602857
vn 0.536943 0.621704 -0.570242
vn -0.192303 -0.981336 -0.000001
vn -0.180900 -0.983501 -0.000001
vn -0.168022 -0.985783 -0.000000
vn -0.192303 -0.981336 -0.000001
vn 1.000000 0.000000 0.000000
vn 1.000000 0.000000 0.000000
vn 1.000000 0.000000 0.000000
vn 1.000000 0.000000 0.000000
vn -0.991260 -0.131925 -0.000000
vn -0.991260 -0.131925 -0.000000
vn -0.997374 -0.072428 -0.000000
vn -0.994616 -0.103625 -0.000000
vn 0.000000 1.000000 0.000000
vn 0.000000 1.000000 0.000000
vn 0.321602 0.517015 -0.793264
vn 0.318134 0.660462 -0.680133
vn -0.147794 -0.989018 0.000000
vn -0.143972 -0.989582 0.000000
vn -0.318134 -0.660462 0.680133
vn -0.321602 -0.517015 0.793264
vn 0.000000 1.000000 0.000000
vn 0.000000 1.000000 0.000000
vn 0.000000 1.000000 0.000000
vn 0.000000 1.000000 0.000000
vn 0.225293 0.667645 -0.709573
vn 0.219405 0.522854 -0.823702
vn 0.172785 0.530447 -0.829922
vn 0.190892 0.664593 -0.722410
vn -0.162158 -0.986765 0.000000
vn -0.156339 -0.987704 0.000000
vn -0.195379 -0.980728 0.000000
vn -0.195379 -0.980728 0.000000
vn -0.219405 -0.522854 0.823702
vn -0.225293 -0.667645 0.709573
vn -0.190892 -0.664593 0.722410
vn -0.172784 -0.530447 0.829922
vn -0.185983 0.000000 0.982553
vn -0.198961 -0.199254 0.959538
vn -0.131157 -0.204266 0.970089
vn -0.112414 0.000000 0.993662
vn -0.318913 0.000000 0.947784
vn -0.324180 -0.196483 0.925366
vn -0.508914 -0.003902 0.860809
vn -0.514932 -0.194209 0.834942
vn -0.581070 -0.204408 0.787766
vn -0.567276 -0.006580 0.823501
vn -0.999428 -0.033807 0.000000
vn -0.999636 -0.026979 0.000000
vn -1.000000 0.000000 0.000000
vn -1.000000 0.000000 0.000000
vn 0.567276 0.006580 -0.823501
vn 0.508914 0.003902 -0.860809
vn 0.514932 0.194210 -0.834942
vn 0.581070 0.204408 -0.787766
vn 0.324180 0.196484 -0.925366
vn 0.318913 0.000000 -0.947784
vn 0.198961 0.199255 -0.959538
vn 0.185983 0.000000 -0.982553
vn 0.131157 0.204266 -0.970089
vn 0.112413 0.000000 -0.993662
vn 1.000000 0.000000 0.000000
vn 1.000000 0.000000 0.000000
vn 1.000000 0.000000 0.000000
vn 1.000000 0.000000 0.000000
vn -0.185969 0.000000 0.982556
vn -0.112414 0.000000 0.993661
vn -0.318891 0.000000 0.947791
vn -0.506922 0.000000 0.861992
vn -0.564223 0.000000 0.825623
vn -1.000000 0.000000 0.000000
vn -1.000000 0.000000 0.000000
vn 0.564223 0.000000 -0.825623
vn 0.506922 0.000000 -0.861992
vn 0.318892 0.000000 -0.947791
vn 0.185969 0.000000 -0.982556
vn 0.112414 0.000000 -0.993662
vn 1.000000 0.000000 0.000000
vn 1.000000 0.000000 0.000000
s 1
g pCube3
usemtl initialShadingGroup
f 1/1/1 45/58/2 44/57/3 12/18/4
s 2
f 3/3/5 5/5/6 10/16/7 9/15/8
s 3
f 46/60/9 7/7/10 11/17/11 47/61/12
s 4
f 7/7/13 1/9/14 12/19/15 11/17/16
s 5
f 2/2/17 41/54/18 50/65/19 8/11/20
s 6
f 7/13/21 46/59/22 45/58/23 1/1/24
s 2
f 9/15/8 10/16/7 19/28/25 18/27/26
s 3
f 11/17/11 20/29/27 48/62/28 47/61/12
s 4
f 12/19/15 17/26/29 20/29/30 11/17/16
s 1
f 44/57/3 43/56/31 17/25/32 12/18/4
s 2
f 13/20/33 14/21/34 6/6/35 4/4/36
s 3
f 15/22/37 8/8/38 50/64/39 49/63/40
s 4
f 16/24/41 2/10/42 8/8/43 15/22/44
s 1
f 42/55/45 41/54/46 2/2/47 16/23/48
f 43/56/31 42/55/45 16/23/48 17/25/32
s 2
f 19/28/25 14/21/34 13/20/33 18/27/26
s 3
f 20/29/27 15/22/37 49/63/40 48/62/28
s 4
f 17/26/29 16/24/41 15/22/44 20/29/30
s 1
f 32/43/49 31/42/50 21/30/51 22/31/52
f 33/44/53 32/43/49 22/31/52 23/32/54
f 34/45/55 33/44/53 23/32/54 24/33/56
f 25/34/57 35/46/58 34/45/55 24/33/56
s 6
f 26/35/59 36/47/60 35/46/61 25/34/62
s 3
f 36/48/63 26/36/64 27/37/65 37/49/66
f 28/38/67 38/50/68 37/49/66 27/37/65
f 29/39/69 39/51/70 38/50/68 28/38/67
f 30/40/71 40/52/72 39/51/70 29/39/69
s 5
f 21/30/73 31/42/74 40/53/75 30/41/76
s 1
f 13/20/77 4/4/78 31/42/50 32/43/49
f 18/27/79 13/20/77 32/43/49 33/44/53
f 9/15/80 18/27/79 33/44/53 34/45/55
f 35/46/58 3/3/81 9/15/80 34/45/55
s 6
f 36/47/60 5/14/82 3/3/83 35/46/61
s 3
f 5/5/84 36/48/63 37/49/66 10/16/85
f 38/50/68 19/28/86 10/16/85 37/49/66
f 39/51/70 14/21/87 19/28/86 38/50/68
f 40/52/72 6/6/88 14/21/87 39/51/70
s 5
f 31/42/74 4/4/89 6/12/90 40/53/75
s 1
f 22/31/52 21/30/51 41/54/46 42/55/45
f 23/32/54 22/31/52 42/55/45 43/56/31
f 24/33/56 23/32/54 43/56/31 44/57/3
f 45/58/2 25/34/57 24/33/56 44/57/3
s 6
f 46/59/22 26/35/59 25/34/62 45/58/23
s 3
f 26/36/64 46/60/9 47/61/12 27/37/65
f 48/62/28 28/38/67 27/37/65 47/61/12
f 49/63/40 29/39/69 28/38/67 48/62/28
f 50/64/39 30/40/71 29/39/69 49/63/40
s 5
f 41/54/18 21/30/73 30/41/76 50/65/19
s 12
f 51/66/91 62/67/92 94/68/93 95/69/94
s 13
f 53/70/95 59/71/96 60/72/97 55/73/98
s 14
f 96/74/99 97/75/100 61/76/101 57/77/102
s 15
f 57/77/103 61/76/104 62/78/105 51/79/106
s 16
f 52/80/107 58/81/108 100/82/109 91/83/110
s 17
f 57/84/111 51/66/112 95/69/113 96/85/114
s 13
f 59/71/96 68/86/115 69/87/116 60/72/97
s 14
f 61/76/101 97/75/100 98/88/117 70/89/118
s 15
f 62/78/105 61/76/104 70/89/119 67/90/120
s 12
f 94/68/93 62/67/92 67/91/121 93/92/122
s 13
f 63/93/123 54/94/124 56/95/125 64/96/126
s 14
f 65/97/127 99/98/128 100/99/129 58/100/130
s 15
f 66/101/131 65/97/132 58/100/133 52/102/134
s 12
f 92/103/135 66/104/136 52/80/137 91/83/138
f 93/92/122 67/91/121 66/104/136 92/103/135
s 13
f 69/87/116 68/86/115 63/93/123 64/96/126
s 14
f 70/89/118 98/88/117 99/98/128 65/97/127
s 15
f 67/90/120 70/89/119 65/97/132 66/101/131
s 12
f 82/105/139 72/106/140 71/107/141 81/108/142
f 83/109/143 73/110/144 72/106/140 82/105/139
f 84/111/145 74/112/146 73/110/144 83/109/143
f 75/113/147 74/112/146 84/111/145 85/114/148
s 17
f 76/115/149 75/113/150 85/114/151 86/116/152
s 14
f 86/117/153 87/118/154 77/119/155 76/120/156
f 78/121/157 77/119/155 87/118/154 88/122/158
f 79/123/159 78/121/157 88/122/158 89/124/160
f 80/125/161 79/123/159 89/124/160 90/126/162
s 16
f 71/107/163 80/127/164 90/128/165 81/108/166
s 12
f 63/93/167 82/105/139 81/108/142 54/94/168
f 68/86/169 83/109/143 82/105/139 63/93/167
f 59/71/170 84/111/145 83/109/143 68/86/169
f 85/114/148 84/111/145 59/71/170 53/70/171
s 17
f 86/116/152 85/114/151 53/70/172 55/129/173
s 14
f 55/73/174 60/72/175 87/118/154 86/117/153
f 88/122/158 87/118/154 60/72/175 69/87/176
f 89/124/160 88/122/158 69/87/176 64/96/177
f 90/126/162 89/124/160 64/96/177 56/95/178
s 16
f 81/108/166 90/128/165 56/130/179 54/94/180
s 12
f 72/106/140 92/103/135 91/83/138 71/107/141
f 73/110/144 93/92/122 92/103/135 72/106/140
f 74/112/146 94/68/93 93/92/122 73/110/144
f 95/69/94 94/68/93 74/112/146 75/113/147
s 17
f 96/85/114 95/69/113 75/113/150 76/115/149
s 14
f 76/120/156 77/119/155 97/75/100 96/74/99
f 98/88/117 97/75/100 77/119/155 78/121/157
f 99/98/128 98/88/117 78/121/157 79/123/159
f 100/99/129 99/98/128 79/123/159 80/125/161
s 16
f 91/83/110 100/82/109 80/127/164 71/107/163
